<svg width="40" height="40" viewBox="0 0 40 40" fill="none" xmlns="http://www.w3.org/2000/svg">
<path d="M11.0333 17.9833C13.4333 22.7 17.3 26.55 22.0167 28.9667L25.6833 25.3C26.1333 24.85 26.8 24.7 27.3833 24.9C29.25 25.5167 31.2667 25.85 33.3333 25.85C34.25 25.85 35 26.6 35 27.5167V33.3333C35 34.25 34.25 35 33.3333 35C17.6833 35 5 22.3167 5 6.66667C5 5.75 5.75 5 6.66667 5H12.5C13.4167 5 14.1667 5.75 14.1667 6.66667C14.1667 8.75 14.5 10.75 15.1167 12.6167C15.3 13.2 15.1667 13.85 14.7 14.3167L11.0333 17.9833Z" fill="#A4508B"/>
</svg>
