<svg width="40" height="40" viewBox="0 0 40 40" fill="none" xmlns="http://www.w3.org/2000/svg">
<path d="M30.0002 13.3333C30.0002 7.81659 25.5168 3.33325 20.0002 3.33325C14.4835 3.33325 10.0002 7.81659 10.0002 13.3333C10.0002 20.8333 20.0002 31.6666 20.0002 31.6666C20.0002 31.6666 30.0002 20.8333 30.0002 13.3333ZM16.6668 13.3333C16.6668 11.4999 18.1668 9.99992 20.0002 9.99992C21.8335 9.99992 23.3335 11.4999 23.3335 13.3333C23.3335 15.1666 21.8502 16.6666 20.0002 16.6666C18.1668 16.6666 16.6668 15.1666 16.6668 13.3333ZM8.3335 33.3333V36.6666H31.6668V33.3333H8.3335Z" fill="#A4508B"/>
</svg>
