<svg width="60" height="60" viewBox="0 0 60 60" fill="none" xmlns="http://www.w3.org/2000/svg">
<g clip-path="url(#clip0)">
<path d="M58.9728 10.7318C58.4267 5.61493 54.3855 1.57288 49.2682 1.02722C36.4352 -0.342407 23.5648 -0.342407 10.7323 1.02722C5.61493 1.57333 1.57333 5.61493 1.02722 10.7318C-0.342407 23.5643 -0.342407 36.4352 1.02722 49.2677C1.57333 54.3851 5.61493 58.4267 10.7318 58.9728C23.5643 60.3424 36.4352 60.3424 49.2682 58.9728C54.3855 58.4267 58.4267 54.3851 58.9728 49.2677C60.3424 36.4352 60.3424 23.5648 58.9728 10.7318Z" fill="url(#paint0_radial)"/>
<path d="M55.7093 12.902C55.225 8.36143 51.6389 4.77486 47.0979 4.29008C35.7105 3.07518 24.2893 3.07518 12.902 4.29008C8.36143 4.77486 4.77486 8.36143 4.29008 12.902C3.07518 24.2893 3.07518 35.7105 4.29008 47.0974C4.77486 51.6384 8.36143 55.225 12.902 55.7093C24.2893 56.9247 35.7105 56.9247 47.0974 55.7093C51.6384 55.225 55.225 51.6384 55.7093 47.0974C56.9247 35.7105 56.9247 24.2893 55.7093 12.902Z" fill="url(#paint1_linear)"/>
<path d="M0.898926 48.0239C0.940125 48.4387 0.982697 48.8534 1.0271 49.2681C1.57321 54.385 5.61481 58.4266 10.7321 58.9727C23.5646 60.3423 36.4356 60.3423 49.2681 58.9727C54.3854 58.4266 58.4265 54.385 58.9727 49.2681C59.0171 48.8534 59.0596 48.4387 59.1013 48.0239H0.898926Z" fill="url(#paint2_linear)"/>
<path d="M58.973 49.2679C59.7091 42.3726 60.0487 35.4663 59.9938 28.561L46.2792 14.8464C44.5658 12.8904 42.0632 11.6695 39.1225 11.5638C33.075 11.3459 27.0083 11.3569 20.9598 11.5647C15.9363 11.7377 12.4235 15.1142 11.5226 20.0768C11.3637 20.953 11.2685 21.8406 11.1436 22.7231V37.2718C11.2127 37.7433 11.3143 38.2125 11.3459 38.6867C11.5473 41.7052 12.7878 44.2907 14.7741 46.0398L28.7304 59.9956C35.5794 60.0437 42.429 59.7031 49.2684 58.973C54.3857 58.4269 58.4269 54.3853 58.973 49.2679Z" fill="url(#paint3_linear)"/>
<path d="M58.9728 49.2683C58.4272 54.3847 54.3846 58.4272 49.2682 58.9729C42.4297 59.7026 35.5788 60.0436 28.7307 59.9955L14.7954 46.0603C16.4109 47.4743 18.5166 48.3354 20.9601 48.4274C27.0072 48.6544 33.0753 48.6485 39.1223 48.4306C44.5917 48.2328 48.5495 44.1848 48.7203 38.7155C48.9025 32.9083 48.9025 27.086 48.7203 21.2788C48.6425 18.7556 47.7567 16.5355 46.2882 14.8555L59.9941 28.5614C60.0481 35.4658 59.7084 42.373 58.9728 49.2683Z" fill="url(#paint4_linear)"/>
<path d="M37.0797 23.5029C35.3228 21.5899 32.8019 20.3896 29.9999 20.3896C24.6926 20.3896 20.3896 24.6926 20.3896 29.9999C20.3896 32.8019 21.5899 35.3228 23.5029 37.0797L45.7379 59.3147C46.9148 59.2121 48.0917 59.0981 49.2677 58.9727C54.385 58.4266 58.4266 54.385 58.9727 49.2677C59.0981 48.0917 59.2121 46.9148 59.3147 45.7379L37.0797 23.5029Z" fill="url(#paint5_linear)"/>
<path d="M59.8835 36.4631L41.9886 18.5687C41.5711 18.0207 40.9133 17.665 40.1713 17.665C38.9088 17.665 37.8848 18.6886 37.8848 19.9516C37.8848 20.6936 38.2404 21.3514 38.7884 21.7689L59.5635 42.5445C59.7045 40.518 59.8112 38.4905 59.8835 36.4631Z" fill="url(#paint6_linear)"/>
<path d="M11.1436 22.7231C11.2685 21.8406 11.3637 20.9529 11.5226 20.0768C12.423 15.1142 15.9363 11.7377 20.9598 11.5647C27.0083 11.3569 33.075 11.3459 39.1225 11.5638C44.5901 11.7606 48.5497 15.8091 48.7205 21.2784C48.9022 27.0861 48.9022 32.9079 48.7205 38.7156C48.5497 44.1849 44.5914 48.2329 39.123 48.4302C33.0755 48.6486 27.0074 48.6541 20.9603 48.427C15.4919 48.2215 11.7116 44.1639 11.3459 38.6863C11.3143 38.2125 11.2127 37.7428 11.1436 37.2713C11.1436 32.4218 11.1436 27.5722 11.1436 22.7231ZM30.0052 45.1888C32.7729 45.1888 35.5433 45.2716 38.3073 45.1696C42.6409 45.0089 45.3065 42.4225 45.4076 38.093C45.5331 32.6982 45.5331 27.2962 45.4076 21.901C45.3065 17.5724 42.6391 14.9256 38.3073 14.8336C32.8091 14.7173 27.3049 14.7182 21.8067 14.8336C17.5078 14.9237 14.8345 17.517 14.7178 21.798C14.5695 27.2609 14.5695 32.7335 14.7178 38.1964C14.8345 42.477 17.5078 45.0103 21.8072 45.1696C24.5363 45.2712 27.2724 45.1888 30.0052 45.1888Z" fill="url(#paint7_linear)"/>
<path d="M11.1436 22.7231C11.2685 21.8406 11.3637 20.9529 11.5226 20.0768C12.423 15.1142 15.9363 11.7377 20.9598 11.5647C27.0083 11.3569 33.075 11.3459 39.1225 11.5638C44.5901 11.7606 48.5497 15.8091 48.7205 21.2784C48.9022 27.0861 48.9022 32.9079 48.7205 38.7156C48.5497 44.1849 44.5914 48.2329 39.123 48.4302C33.0755 48.6486 27.0074 48.6541 20.9603 48.427C15.4919 48.2215 11.7116 44.1639 11.3459 38.6863C11.3143 38.2125 11.2127 37.7428 11.1436 37.2713C11.1436 32.4218 11.1436 27.5722 11.1436 22.7231ZM30.0052 45.1888C32.7729 45.1888 35.5433 45.2716 38.3073 45.1696C42.6409 45.0089 45.3065 42.4225 45.4076 38.093C45.5331 32.6982 45.5331 27.2962 45.4076 21.901C45.3065 17.5724 42.6391 14.9256 38.3073 14.8336C32.8091 14.7173 27.3049 14.7182 21.8067 14.8336C17.5078 14.9237 14.8345 17.517 14.7178 21.798C14.5695 27.2609 14.5695 32.7335 14.7178 38.1964C14.8345 42.477 17.5078 45.0103 21.8072 45.1696C24.5363 45.2712 27.2724 45.1888 30.0052 45.1888Z" fill="white"/>
<path d="M30.0004 20.3901C24.6931 20.3901 20.3901 24.6927 20.3901 30C20.3901 35.3077 24.6931 39.6103 30.0004 39.6103C35.3082 39.6103 39.6107 35.3077 39.6107 30C39.6107 24.6927 35.3082 20.3901 30.0004 20.3901ZM30.0004 36.3015C26.5201 36.3015 23.6989 33.4803 23.6989 30C23.6989 26.5196 26.5201 23.6984 30.0004 23.6984C33.4808 23.6984 36.302 26.5196 36.302 30C36.302 33.4803 33.4808 36.3015 30.0004 36.3015Z" fill="white"/>
<path d="M42.4579 19.9516C42.4579 21.2141 41.4343 22.2376 40.1718 22.2376C38.9093 22.2376 37.8853 21.2141 37.8853 19.9516C37.8853 18.6886 38.9093 17.665 40.1718 17.665C41.4343 17.665 42.4579 18.6886 42.4579 19.9516Z" fill="white"/>
</g>
<defs>
<radialGradient id="paint0_radial" cx="0" cy="0" r="1" gradientUnits="userSpaceOnUse" gradientTransform="translate(12.2997 52.4352) scale(66.1694)">
<stop stop-color="#FAE100"/>
<stop offset="0.0544" stop-color="#FADC04"/>
<stop offset="0.1167" stop-color="#FBCE0E"/>
<stop offset="0.1829" stop-color="#FCB720"/>
<stop offset="0.2514" stop-color="#FE9838"/>
<stop offset="0.3054" stop-color="#FF7950"/>
<stop offset="0.4922" stop-color="#FF1C74"/>
<stop offset="1" stop-color="#6C1CD1"/>
</radialGradient>
<linearGradient id="paint1_linear" x1="23.0123" y1="26.0694" x2="-78.6348" y2="-31.1071" gradientUnits="userSpaceOnUse">
<stop stop-color="#A1B5D8" stop-opacity="0"/>
<stop offset="0.3094" stop-color="#90A2BD" stop-opacity="0.309804"/>
<stop offset="0.7554" stop-color="#7C8B9C" stop-opacity="0.756863"/>
<stop offset="1" stop-color="#748290"/>
</linearGradient>
<linearGradient id="paint2_linear" x1="29.9999" y1="52.9647" x2="29.9999" y2="62.3172" gradientUnits="userSpaceOnUse">
<stop stop-color="#FAE100" stop-opacity="0"/>
<stop offset="0.3068" stop-color="#FCA800" stop-opacity="0.305882"/>
<stop offset="0.6275" stop-color="#FE7300" stop-opacity="0.627451"/>
<stop offset="0.8685" stop-color="#FF5200" stop-opacity="0.866667"/>
<stop offset="1" stop-color="#FF4500"/>
</linearGradient>
<linearGradient id="paint3_linear" x1="26.5868" y1="26.5019" x2="11.7378" y2="11.6529" gradientUnits="userSpaceOnUse">
<stop stop-color="#833AB4" stop-opacity="0"/>
<stop offset="1" stop-color="#833AB4"/>
</linearGradient>
<linearGradient id="paint4_linear" x1="41.1211" y1="54.8776" x2="33.7097" y2="19.9381" gradientUnits="userSpaceOnUse">
<stop stop-color="#833AB4" stop-opacity="0"/>
<stop offset="1" stop-color="#833AB4"/>
</linearGradient>
<linearGradient id="paint5_linear" x1="43.9412" y1="43.9411" x2="14.1727" y2="14.1727" gradientUnits="userSpaceOnUse">
<stop stop-color="#833AB4" stop-opacity="0"/>
<stop offset="1" stop-color="#833AB4"/>
</linearGradient>
<linearGradient id="paint6_linear" x1="46.149" y1="25.9292" x2="36.3052" y2="16.0854" gradientUnits="userSpaceOnUse">
<stop stop-color="#833AB4" stop-opacity="0"/>
<stop offset="1" stop-color="#833AB4"/>
</linearGradient>
<linearGradient id="paint7_linear" x1="41.9133" y1="18.1701" x2="17.6419" y2="42.4414" gradientUnits="userSpaceOnUse">
<stop stop-color="#833AB4"/>
<stop offset="0.0922" stop-color="#9C3495"/>
<stop offset="0.2927" stop-color="#DC2546"/>
<stop offset="0.392" stop-color="#FD1D1D"/>
<stop offset="0.5589" stop-color="#FC6831"/>
<stop offset="0.6887" stop-color="#FC9B40"/>
<stop offset="0.7521" stop-color="#FCAF45"/>
<stop offset="0.7806" stop-color="#FDB750"/>
<stop offset="0.8656" stop-color="#FECB6A"/>
<stop offset="0.9415" stop-color="#FFD87A"/>
<stop offset="1" stop-color="#FFDC80"/>
</linearGradient>
<clipPath id="clip0">
<rect width="60" height="60" fill="white"/>
</clipPath>
</defs>
</svg>
