<svg width="60" height="60" viewBox="0 0 60 60" fill="none" xmlns="http://www.w3.org/2000/svg">
<path d="M49.2682 58.9728C36.4357 60.3424 23.5643 60.3424 10.7318 58.9728C5.61493 58.4267 1.57333 54.3851 1.02722 49.2677C-0.342407 36.4352 -0.342407 23.5643 1.02722 10.7318C1.57333 5.61493 5.61493 1.57333 10.7318 1.02722C23.5643 -0.342407 36.4352 -0.342407 49.2677 1.02722C54.3851 1.57333 58.4267 5.61493 58.9728 10.7318C60.3424 23.5643 60.3424 36.4352 58.9728 49.2677C58.4267 54.3851 54.3855 58.4267 49.2682 58.9728Z" fill="url(#paint0_linear)"/>
<path d="M55.7093 12.902C55.225 8.36143 51.6389 4.77486 47.0979 4.29008C35.7105 3.07518 24.2893 3.07518 12.902 4.29008C8.36143 4.77486 4.77486 8.36143 4.29008 12.902C3.07518 24.2893 3.07518 35.7105 4.29008 47.0974C4.77486 51.6384 8.36143 55.225 12.902 55.7093C24.2893 56.9247 35.7105 56.9247 47.0974 55.7093C51.6384 55.225 55.225 51.6384 55.7093 47.0974C56.9247 35.7105 56.9247 24.2893 55.7093 12.902Z" fill="url(#paint1_linear)"/>
<path d="M0.898926 48.0239C0.940125 48.4387 0.982697 48.8534 1.0271 49.2681C1.57321 54.385 5.61481 58.4266 10.7321 58.9727C23.5646 60.3423 36.4356 60.3423 49.2681 58.9727C54.3854 58.4266 58.4265 54.385 58.9727 49.2681C59.0171 48.8534 59.0596 48.4387 59.1013 48.0239H0.898926Z" fill="url(#paint2_linear)"/>
<path d="M58.3261 51.9809L19.6066 13.261C18.7419 12.1326 17.3814 11.4043 15.8502 11.4043C13.2382 11.4043 11.1206 13.5215 11.1206 16.1335C11.1206 17.6651 11.8494 19.0256 12.9778 19.8899L51.5627 58.4752C54.6814 57.4375 57.1671 55.0411 58.3261 51.9809Z" fill="url(#paint3_linear)"/>
<path d="M19.8224 23.9653H11.877V48.5958L23.1508 59.8696C31.8583 60.1992 40.5719 59.9012 49.2675 58.9728C50.7878 58.8108 52.2119 58.3379 53.479 57.6219L19.8224 23.9653Z" fill="url(#paint4_linear)"/>
<path d="M46.806 26.0285C45.3526 24.4351 43.2602 23.4353 40.9343 23.4353C37.2552 23.4353 34.8808 24.7276 33.4677 25.9274L31.9109 23.9654H24.5898V48.5958L35.8975 59.9035C40.3571 59.7584 44.8148 59.448 49.2683 58.9729C54.3857 58.4268 58.4268 54.3852 58.9729 49.2683C59.3382 45.847 59.6051 42.4229 59.7754 38.9979L46.806 26.0285Z" fill="url(#paint5_linear)"/>
<path d="M11.8779 23.9653H19.8229V48.5958H11.8779V23.9653Z" fill="white"/>
<path d="M40.9343 23.4353C35.112 23.4353 32.5545 26.6712 31.9109 27.6563V23.9654H24.5898V48.5958H32.5352V36.2238C32.5352 32.6487 34.1809 29.8678 37.3024 29.8678C40.4234 29.8678 40.9343 33.3294 40.9343 37.5862V48.5958H48.8797V31.3807C48.8797 26.9926 45.3224 23.4353 40.9343 23.4353Z" fill="white"/>
<path d="M20.5794 16.1339C20.5794 18.7459 18.4622 20.8631 15.8502 20.8631C13.2382 20.8631 11.1206 18.7459 11.1206 16.1339C11.1206 13.5219 13.2382 11.4043 15.8502 11.4043C18.4622 11.4043 20.5794 13.5219 20.5794 16.1339Z" fill="white"/>
<defs>
<linearGradient id="paint0_linear" x1="19.9212" y1="8.43589" x2="35.0969" y2="40.9049" gradientUnits="userSpaceOnUse">
<stop stop-color="#0077B5"/>
<stop offset="1" stop-color="#0066B2"/>
</linearGradient>
<linearGradient id="paint1_linear" x1="42.6893" y1="36.807" x2="-44.4829" y2="-9.95541" gradientUnits="userSpaceOnUse">
<stop stop-color="#0066B2" stop-opacity="0"/>
<stop offset="1" stop-color="#07485E"/>
</linearGradient>
<linearGradient id="paint2_linear" x1="29.9999" y1="48.7296" x2="29.9999" y2="61.2696" gradientUnits="userSpaceOnUse">
<stop stop-color="#0066B2" stop-opacity="0"/>
<stop offset="1" stop-color="#07485E"/>
</linearGradient>
<linearGradient id="paint3_linear" x1="31.7995" y1="32.0831" x2="9.36541" y2="9.64902" gradientUnits="userSpaceOnUse">
<stop stop-color="#0066B2" stop-opacity="0"/>
<stop offset="1" stop-color="#07485E"/>
</linearGradient>
<linearGradient id="paint4_linear" x1="44.9705" y1="52.9255" x2="-0.206031" y2="31.749" gradientUnits="userSpaceOnUse">
<stop stop-color="#0066B2" stop-opacity="0"/>
<stop offset="1" stop-color="#07485E"/>
</linearGradient>
<linearGradient id="paint5_linear" x1="55.9608" y1="57.569" x2="24.4888" y2="26.097" gradientUnits="userSpaceOnUse">
<stop stop-color="#0066B2" stop-opacity="0"/>
<stop offset="1" stop-color="#07485E"/>
</linearGradient>
</defs>
</svg>
