<svg width="60" height="60" viewBox="0 0 60 60" fill="none" xmlns="http://www.w3.org/2000/svg">
<path d="M49.2682 58.9728C36.4357 60.3424 23.5643 60.3424 10.7318 58.9728C5.61493 58.4267 1.57333 54.3851 1.02722 49.2677C-0.342407 36.4352 -0.342407 23.5643 1.02722 10.7318C1.57333 5.61493 5.61493 1.57333 10.7318 1.02722C23.5643 -0.342407 36.4352 -0.342407 49.2677 1.02722C54.3851 1.57333 58.4267 5.61493 58.9728 10.7318C60.3424 23.5643 60.3424 36.4352 58.9728 49.2677C58.4267 54.3851 54.3855 58.4267 49.2682 58.9728Z" fill="url(#paint0_linear)"/>
<path d="M55.7093 12.902C55.225 8.36143 51.6389 4.77486 47.0979 4.29008C35.7105 3.07518 24.2893 3.07518 12.902 4.29008C8.36143 4.77486 4.77486 8.36143 4.29008 12.902C3.07518 24.2893 3.07518 35.7105 4.29008 47.0974C4.77486 51.6384 8.36143 55.225 12.902 55.7093C24.2893 56.9247 35.7105 56.9247 47.0974 55.7093C51.6384 55.225 55.225 51.6384 55.7093 47.0974C56.9247 35.7105 56.9247 24.2893 55.7093 12.902Z" fill="url(#paint1_linear)"/>
<path d="M0.898926 48.0239C0.940125 48.4387 0.982697 48.8534 1.0271 49.2681C1.57321 54.385 5.61481 58.4266 10.7321 58.9727C23.5646 60.3423 36.4356 60.3423 49.2681 58.9727C54.3854 58.4266 58.4265 54.385 58.9727 49.2681C59.0171 48.8534 59.0596 48.4387 59.1013 48.0239H0.898926Z" fill="url(#paint2_linear)"/>
<path d="M59.9872 27.8916L47.5329 15.4377C46.1371 16.2356 44.9071 16.6782 43.9806 16.9236C43.4597 17.0632 43.0344 17.1392 42.7286 17.1808C41.3242 15.7412 39.3632 14.8472 37.1924 14.8472C32.9215 14.8472 29.4585 18.3097 29.4585 22.5815C29.4585 22.7358 29.4626 22.8882 29.4727 23.0402C29.4933 23.4106 29.5405 23.7745 29.6133 24.1283C27.8303 24.1018 22.035 23.6257 16.5079 18.8878C16.5075 18.8878 16.5075 18.8874 16.5075 18.8874H16.507L13.9005 16.2804C13.9005 16.2804 10.8427 21.6175 15.3383 25.6673C15.5356 25.8875 15.7526 26.1049 15.9902 26.3187C16.009 26.3398 16.0287 26.3604 16.0474 26.3814C15.4574 26.3416 13.6826 26.1649 12.6554 25.4394C12.6554 25.4394 12.4489 28.7014 15.1667 31.1028L17.3612 33.3161C16.6929 33.3715 15.9536 33.3582 15.4395 33.133C15.4395 33.133 15.8945 35.0652 17.6533 36.6115L20.7276 39.7019C18.8833 40.7763 15.6547 42.1207 11.4048 41.7774L30.0545 60.0001C36.4623 59.9982 42.8701 59.6558 49.2682 58.9728C54.3856 58.4267 58.4272 54.3851 58.9733 49.2682C59.7327 42.15 60.0701 35.0199 59.9872 27.8916Z" fill="url(#paint3_linear)"/>
<path d="M48.5958 18.4415C47.2682 19.136 45.2687 19.4568 44.6059 19.5493C44.6004 19.5173 44.5949 19.4866 44.5894 19.4559C46.843 18.062 47.5328 15.4377 47.5328 15.4377C46.1371 16.2356 44.9071 16.6782 43.9806 16.9236C43.4597 17.0632 43.0344 17.1387 42.7286 17.1808C41.3242 15.7407 39.3631 14.8472 37.1924 14.8472C32.9215 14.8472 29.4585 18.3092 29.4585 22.5815C29.4585 22.7354 29.4626 22.8882 29.4727 23.0398C29.4933 23.4101 29.5404 23.774 29.6132 24.1279C27.546 24.0972 20.084 23.4632 13.9005 16.2804C13.9005 16.2804 10.4572 22.2881 16.2461 26.392C16.2461 26.392 13.9005 26.3187 12.6554 25.4394C12.6554 25.4394 12.2892 31.2282 18.9565 33.0593C18.9565 33.0593 16.6123 33.6461 15.439 33.133C15.439 33.133 16.6118 38.1153 22.4735 38.4824C22.4735 38.4824 18.2694 42.3313 11.4043 41.7774C14.7808 43.9152 18.7839 45.1525 23.0759 45.1525C35.1439 45.1525 44.9272 35.3696 44.9272 23.3016C44.9272 23.151 44.9259 23.0004 44.9227 22.8498C44.9259 22.7605 44.9272 22.6717 44.9272 22.5815C44.9272 22.5188 44.9259 22.4561 44.925 22.3934C47.1561 20.9066 48.5958 18.4415 48.5958 18.4415Z" fill="white"/>
<defs>
<linearGradient id="paint0_linear" x1="19.9212" y1="8.43589" x2="35.0969" y2="40.9049" gradientUnits="userSpaceOnUse">
<stop stop-color="#00C3FF"/>
<stop offset="1" stop-color="#00B0ED"/>
</linearGradient>
<linearGradient id="paint1_linear" x1="42.6893" y1="36.807" x2="-44.4829" y2="-9.95541" gradientUnits="userSpaceOnUse">
<stop stop-color="#00B0ED" stop-opacity="0"/>
<stop offset="1" stop-color="#00A2CE"/>
</linearGradient>
<linearGradient id="paint2_linear" x1="29.9999" y1="51.2558" x2="29.9999" y2="59.1178" gradientUnits="userSpaceOnUse">
<stop stop-color="#00B0ED" stop-opacity="0"/>
<stop offset="1" stop-color="#00A2CE"/>
</linearGradient>
<linearGradient id="paint3_linear" x1="57.3541" y1="56.4929" x2="28.0423" y2="27.1811" gradientUnits="userSpaceOnUse">
<stop stop-color="#00B0ED" stop-opacity="0"/>
<stop offset="1" stop-color="#00A2CE"/>
</linearGradient>
</defs>
</svg>
