<svg width="60" height="60" viewBox="0 0 60 60" fill="none" xmlns="http://www.w3.org/2000/svg">
<g clip-path="url(#clip0)">
<path d="M49.2682 58.9728C36.4357 60.3424 23.5643 60.3424 10.7318 58.9728C5.61493 58.4267 1.57333 54.3851 1.02722 49.2677C-0.342407 36.4352 -0.342407 23.5643 1.02722 10.7318C1.57333 5.61493 5.61493 1.57333 10.7318 1.02722C23.5643 -0.342407 36.4352 -0.342407 49.2677 1.02722C54.3851 1.57333 58.4267 5.61493 58.9728 10.7318C60.3424 23.5643 60.3424 36.4352 58.9728 49.2677C58.4267 54.3851 54.3855 58.4267 49.2682 58.9728Z" fill="url(#paint0_linear)"/>
<path d="M55.7093 12.902C55.225 8.36143 51.6389 4.77486 47.0979 4.29008C35.7105 3.07518 24.2893 3.07518 12.902 4.29008C8.36143 4.77486 4.77486 8.36143 4.29008 12.902C3.07518 24.2893 3.07518 35.7105 4.29008 47.0974C4.77486 51.6384 8.36143 55.225 12.902 55.7093C24.2893 56.9247 35.7105 56.9247 47.0974 55.7093C51.6384 55.225 55.225 51.6384 55.7093 47.0974C56.9247 35.7105 56.9247 24.2893 55.7093 12.902Z" fill="url(#paint1_linear)"/>
<path d="M0.898926 48.0239C0.940125 48.4387 0.982697 48.8534 1.0271 49.2681C1.57321 54.385 5.61481 58.4266 10.7321 58.9727C23.5646 60.3423 36.4356 60.3423 49.2681 58.9727C54.3854 58.4266 58.4265 54.385 58.9727 49.2681C59.0171 48.8534 59.0596 48.4387 59.1013 48.0239H0.898926Z" fill="url(#paint2_linear)"/>
<path d="M49.2682 58.9727C54.3856 58.4266 58.4267 54.385 58.9728 49.2677C59.572 43.6564 59.9089 38.0378 59.984 32.4178L46.9506 19.3849C46.2813 18.5554 45.6762 18.4785 44.4219 18.2336C43.4056 18.0349 42.3661 17.8994 41.332 17.8587C38.0256 17.7282 34.7168 17.6042 31.4081 17.5726C26.5499 17.5263 21.6907 17.5424 16.8517 18.1045C14.7652 18.3466 12.5597 19.9832 12.323 22.2138C12.2017 23.3601 11.9912 24.4999 11.9257 25.6489C11.6863 29.8333 11.6364 34.0154 12.2214 38.1834C12.4173 39.5791 12.6329 40.2177 13.5736 40.9959L32.5594 59.9816C38.1318 59.9024 43.7037 59.5664 49.2682 58.9727Z" fill="url(#paint3_linear)"/>
<path d="M31.0281 42.9145C26.1849 42.752 22.4363 42.6595 18.6923 42.481C17.5497 42.4261 16.3737 42.2709 15.2915 41.9193C13.2998 41.273 12.1636 39.8163 11.8684 37.7129C11.2834 33.545 11.3333 29.3629 11.5727 25.1784C11.6386 24.0294 11.8492 22.8896 11.9705 21.7434C12.2062 19.5127 14.4122 17.8757 16.4987 17.634C21.3381 17.0719 26.1968 17.0559 31.0555 17.1021C34.3643 17.1337 37.6725 17.2578 40.9789 17.3882C42.013 17.429 43.0526 17.5649 44.0689 17.7631C46.3082 18.2003 47.6037 19.601 47.9983 21.851C48.532 24.8951 48.6717 27.9685 48.5595 31.0433C48.4748 33.3706 48.235 35.6942 47.9937 38.0123C47.7273 40.5707 45.5122 42.0859 43.5172 42.2173C38.9959 42.5153 34.4695 42.7268 31.0281 42.9145Z" fill="url(#paint4_linear)"/>
<path d="M26.4609 35.6604C29.5875 33.741 32.6375 31.8673 35.7792 29.9383C32.644 28.0116 29.5943 26.1375 26.4609 24.2122V35.6604Z" fill="white"/>
</g>
<defs>
<linearGradient id="paint0_linear" x1="13.6491" y1="-1.50058" x2="56.8823" y2="81.7894" gradientUnits="userSpaceOnUse">
<stop stop-color="#FFFCF8"/>
<stop offset="0.1875" stop-color="#FAF8F6"/>
<stop offset="0.4041" stop-color="#ECEEF2"/>
<stop offset="0.6353" stop-color="#D5DCEA"/>
<stop offset="0.875" stop-color="#B5C4DF"/>
<stop offset="1" stop-color="#A1B5D8"/>
</linearGradient>
<linearGradient id="paint1_linear" x1="23.0123" y1="26.0694" x2="-78.6348" y2="-31.1071" gradientUnits="userSpaceOnUse">
<stop stop-color="#A1B5D8" stop-opacity="0"/>
<stop offset="0.3094" stop-color="#90A2BD" stop-opacity="0.309804"/>
<stop offset="0.7554" stop-color="#7C8B9C" stop-opacity="0.756863"/>
<stop offset="1" stop-color="#748290"/>
</linearGradient>
<linearGradient id="paint2_linear" x1="29.9999" y1="52.9647" x2="29.9999" y2="62.3172" gradientUnits="userSpaceOnUse">
<stop stop-color="#A1B5D8" stop-opacity="0"/>
<stop offset="0.3094" stop-color="#90A2BD" stop-opacity="0.309804"/>
<stop offset="0.7554" stop-color="#7C8B9C" stop-opacity="0.756863"/>
<stop offset="1" stop-color="#748290"/>
</linearGradient>
<linearGradient id="paint3_linear" x1="49.6297" y1="49.5603" x2="8.4675" y2="8.39814" gradientUnits="userSpaceOnUse">
<stop stop-color="#A1B5D8" stop-opacity="0"/>
<stop offset="0.3094" stop-color="#90A2BD" stop-opacity="0.309804"/>
<stop offset="0.7554" stop-color="#7C8B9C" stop-opacity="0.756863"/>
<stop offset="1" stop-color="#748290"/>
</linearGradient>
<linearGradient id="paint4_linear" x1="27.7308" y1="23.4247" x2="33.2409" y2="39.4688" gradientUnits="userSpaceOnUse">
<stop stop-color="#E52D27"/>
<stop offset="1" stop-color="#B31217"/>
</linearGradient>
<clipPath id="clip0">
<rect width="60" height="60" fill="white"/>
</clipPath>
</defs>
</svg>
